<svg width="50px" height="50px" viewBox="0 0 30 30" version="1.1" xmlns="http://www.w3.org/2000/svg" xmlns:xlink="http://www.w3.org/1999/xlink" xmlns:sketch="http://www.bohemiancoding.com/sketch/ns" shape-rendering="geometricPrecision">
                    <path d="M30.3140717,9.15220183 C30.7110848,7.67284404 31.12135,6.1433945 31.12135,4.94504587 C31.12135,3.93275229 30.6089326,0.279908257 28.9833326,0.0429357798 C27.2980978,-0.202018349 23.1750152,3.78357798 23.1341543,3.82266055 L23.0673413,3.88733945 L22.9754043,3.86642202 C22.9422739,3.85816514 19.5886457,3.09825688 15.6083,3.09715596 C12.8443935,3.09825688 10.4261478,3.45220183 9.11280217,3.69082569 L15.9103391,18.9924771 L29.8267783,14.8670642 C29.6970174,14.0878899 29.6117065,13.4086239 29.6117065,12.683945 C29.6114304,11.7663303 29.9532261,10.4961468 30.3140717,9.15220183" id="Shape" fill="#64C8DC"></path>
                    <path d="M2.2202913,0.0429357798 C0.59413913,0.279908257 0.082273913,3.93275229 0.082273913,4.94504587 C0.082273913,6.14311927 0.49253913,7.67311927 0.889552174,9.15137615 C1.25122609,10.4961468 1.5916413,11.7666055 1.5916413,12.6831193 C1.5916413,13.41 1.50743478,14.0865138 1.37767391,14.8610092 L14.6944522,18.8097248 L8.01314783,3.76954128 C6.49246087,2.31825688 3.52673478,-0.148899083 2.2202913,0.0429357798" id="Shape" fill="#4BE6A0"></path>
                    <path d="M18.6159913,28.1983486 C18.9682783,27.909633 19.3017913,27.6366055 19.7203391,27.4816514 C19.8547935,27.4312844 20.0803565,27.3712844 20.3920587,27.286789 C20.9196609,27.1447706 21.6916,26.936422 22.5667957,26.6314679 L15.6110609,20.3080734 L8.65035652,26.6358716 C9.52196304,26.9397248 10.290313,27.1461468 10.8148783,27.2873394 C11.1254761,27.3718349 11.3491065,27.4318349 11.4843891,27.4813761 C11.9023848,27.636055 12.2350696,27.9093578 12.5873565,28.1980734 C13.2516217,28.7427523 14.0039587,29.3598165 15.5944957,29.362844 L15.6088522,29.5351376 L15.6088522,29.362844 C17.1996652,29.3600917 17.9525543,28.7430275 18.6159913,28.1983486" id="Shape" fill="#AA3CDC"></path>
                    <path d="M7.5650587,26.2246789 L14.5740783,19.8520183 L1.20097826,15.8881651 C1.08474565,16.5633028 0.98783913,17.2244037 0.98783913,17.8855046 C0.988115217,21.6137615 3.20095217,24.4188991 7.5650587,26.2246789" id="Shape" fill="#FF8214"></path>
                    <path d="M30.2155087,17.8846789 C30.2155087,17.2274312 30.1186022,16.5668807 30.0031978,15.8931193 L16.6480435,19.8520183 L23.6515413,26.2191743 C28.0073652,24.4131193 30.2155087,21.609633 30.2155087,17.8846789" id="Shape" fill="#2D3782"></path>
</svg>