<svg width="129px" height="33px" viewBox="0 0 129 33" version="1.1" xmlns="http://www.w3.org/2000/svg" xmlns:xlink="http://www.w3.org/1999/xlink" xmlns:sketch="http://www.bohemiancoding.com/sketch/ns" shape-rendering="geometricPrecision">
    <g id="Page-1" stroke="none" stroke-width="1" fill="none" fill-rule="evenodd" sketch:type="MSPage">
        <g id="kittysplit-logo" sketch:type="MSArtboardGroup">
            <g id="Logo_Kittysplit_positiv_150217" sketch:type="MSLayerGroup" transform="translate(1.000000, 2.000000)">
                <g id="Group" sketch:type="MSShapeGroup">
                    <g transform="translate(40.308696, 4.678899)" id="Shape" fill="#2D3782">
                        <path d="M0.173934783,18.5488073 L0.173934783,0.778623853 C0.173934783,0.560091743 0.271117391,0.382293578 0.465758696,0.246055046 C0.660123913,0.112018349 0.910534783,0.0440366972 1.21588696,0.0440366972 C1.52123913,0.0440366972 1.77551522,0.112018349 1.97871522,0.246055046 C2.1821913,0.382293578 2.2837913,0.560091743 2.2837913,0.778623853 L2.2837913,12.6421101 L8.08189348,7.42100917 C8.23429348,7.30348624 8.38696957,7.24348624 8.53936957,7.24348624 C8.79392174,7.24348624 9.03494565,7.34477064 9.26354565,7.54678899 C9.49325,7.75100917 9.60699783,7.97807339 9.60699783,8.23211009 C9.60699783,8.43357798 9.53162609,8.60284404 9.37867391,8.7393578 L5.84393261,11.8563303 L10.0653022,17.9669725 C10.1492326,18.1012844 10.1928543,18.2289908 10.1928543,18.3465138 C10.1928543,18.6 10.0653022,18.8413761 9.81102609,19.0684404 C9.55619783,19.2974312 9.29363913,19.4113761 9.02252174,19.4113761 C8.78481087,19.4113761 8.59016957,19.3018349 8.43804565,19.0813761 L4.39447609,13.1746789 L2.2837913,15.0517431 L2.2837913,18.5488073 C2.2837913,18.736789 2.17805,18.909633 1.9662913,19.0684404 C1.75398043,19.2294495 1.50467391,19.3092661 1.21588696,19.3092661 C0.9271,19.3092661 0.681934783,19.233578 0.478182609,19.0813761 C0.274982609,18.9305505 0.173934783,18.7527523 0.173934783,18.5488073 L0.173934783,18.5488073 Z"></path>
                        <path d="M12.5197152,3.63082569 C12.2560522,3.38587156 12.125463,3.10293578 12.125463,2.78119266 C12.125463,2.46137615 12.2530152,2.18284404 12.506463,1.94614679 C12.7607391,1.70834862 13.0743739,1.59110092 13.4479196,1.59110092 C13.8037957,1.59110092 14.1091478,1.70834862 14.3623196,1.94614679 C14.6168717,2.18256881 14.7444239,2.46137615 14.7444239,2.78119266 C14.7444239,3.10293578 14.6168717,3.38587156 14.3623196,3.63082569 C14.1088717,3.8766055 13.8037957,3.99853211 13.4479196,3.99853211 C13.0920435,3.99853211 12.7814457,3.8766055 12.5197152,3.63082569 L12.5197152,3.63082569 Z M12.404863,18.5488073 L12.404863,8.02954128 C12.404863,7.80880734 12.506463,7.63155963 12.7099391,7.49752294 C12.9136913,7.36155963 13.1591326,7.29302752 13.4479196,7.29302752 C13.7527196,7.29302752 14.0064435,7.36155963 14.2104717,7.49752294 C14.4133957,7.63155963 14.5158239,7.80880734 14.5158239,8.02954128 L14.5158239,18.5488073 C14.5158239,18.736789 14.4089783,18.909633 14.1980478,19.0684404 C13.985737,19.2294495 13.7353261,19.3092661 13.4479196,19.3092661 C13.1591326,19.3092661 12.9136913,19.233578 12.7099391,19.0813761 C12.506463,18.9305505 12.404863,18.7527523 12.404863,18.5488073 L12.404863,18.5488073 Z"></path>
                        <path d="M17.8451565,15.4830275 L17.8451565,2.42642202 C17.8451565,2.22440367 17.9550391,2.05100917 18.1753565,1.90678899 C18.3956739,1.76422018 18.6336609,1.69238532 18.8871087,1.69238532 C19.1582261,1.69238532 19.4044957,1.76422018 19.624813,1.90678899 C19.8451304,2.05100917 19.9561174,2.22440367 19.9561174,2.42642202 L19.9561174,7.29275229 L23.1595543,7.29275229 C23.345637,7.29275229 23.4988652,7.37944954 23.6175826,7.54651376 C23.7357478,7.71577982 23.7959348,7.91201835 23.7959348,8.13055046 C23.7959348,8.3512844 23.7354717,8.54091743 23.6175826,8.7 C23.4988652,8.86073394 23.345637,8.94110092 23.1595543,8.94110092 L19.9561174,8.94110092 L19.9561174,15.4224771 C19.9561174,16.1430275 20.1121065,16.6508257 20.4257413,16.9433945 C20.7393761,17.2359633 21.2865804,17.383211 22.0654217,17.383211 L22.8539261,17.383211 C23.142713,17.383211 23.3671717,17.4759633 23.5284065,17.6614679 C23.688813,17.8453211 23.7694304,18.069633 23.7694304,18.3341284 C23.7694304,18.5977982 23.6843957,18.826789 23.5146022,19.0188991 C23.3450848,19.2126606 23.1250435,19.3089908 22.85365,19.3089908 L22.0651457,19.3089908 C19.2523717,19.3089908 17.8451565,18.0346789 17.8451565,15.4830275 L17.8451565,15.4830275 Z"></path>
                        <path d="M26.1089913,15.4830275 L26.1089913,2.42642202 C26.1089913,2.22440367 26.2188739,2.05100917 26.4391913,1.90678899 C26.6592326,1.76422018 26.8972196,1.69238532 27.1506674,1.69238532 C27.4220609,1.69238532 27.6686065,1.76422018 27.8889239,1.90678899 C28.1089652,2.05100917 28.2199522,2.22440367 28.2199522,2.42642202 L28.2199522,7.29275229 L31.423113,7.29275229 C31.6100239,7.29275229 31.7624239,7.37944954 31.8822457,7.54651376 C31.9995826,7.71577982 32.0597696,7.91201835 32.0597696,8.13055046 C32.0597696,8.3512844 31.9995826,8.54091743 31.8822457,8.7 C31.7624239,8.86073394 31.6100239,8.94110092 31.423113,8.94110092 L28.2199522,8.94110092 L28.2199522,15.4224771 C28.2199522,16.1430275 28.3759413,16.6508257 28.6895761,16.9433945 C29.0032109,17.2359633 29.5504152,17.383211 30.3292565,17.383211 L31.1177609,17.383211 C31.4065478,17.383211 31.6307304,17.4759633 31.7925174,17.6614679 C31.9523717,17.8453211 32.0335413,18.069633 32.0335413,18.3341284 C32.0335413,18.5977982 31.9479543,18.826789 31.778437,19.0188991 C31.6094717,19.2126606 31.3883261,19.3089908 31.1174848,19.3089908 L30.3289804,19.3089908 C27.5162065,19.3089908 26.1089913,18.0346789 26.1089913,15.4830275 L26.1089913,15.4830275 Z"></path>
                        <path d="M33.2284457,8.15146789 C33.2284457,7.88256881 33.3813978,7.64724771 33.6861978,7.44577982 C33.9912739,7.24348624 34.2969022,7.14247706 34.6022543,7.14247706 C34.9578543,7.14247706 35.1861783,7.28449541 35.2888826,7.5712844 L38.6455478,16.3513761 L41.6703565,7.5712844 C41.7899022,7.28449541 42.0099435,7.14247706 42.3318609,7.14247706 C42.6209239,7.14247706 42.9204783,7.24321101 43.2352174,7.44577982 C43.5485761,7.64724771 43.7053935,7.89110092 43.7053935,8.17568807 C43.7053935,8.26045872 43.6797174,8.34495413 43.6286413,8.42944954 L39.7634239,18.7502752 L39.2805478,20.0174312 C39.1957891,20.2546789 39.0262717,20.6606422 38.7708913,21.236422 C38.5185478,21.8105505 38.3059609,22.223945 38.1361674,22.4785321 C37.9663739,22.7292661 37.7297674,23.0636697 37.4244152,23.4787156 C37.119063,23.8940367 36.8219935,24.1926606 36.5337587,24.380367 C36.2452478,24.5658716 35.9023478,24.7351376 35.5039543,24.8856881 C35.1055609,25.0387156 34.6864609,25.1152294 34.2461022,25.1152294 C33.5845978,25.1152294 33.2532935,24.7885321 33.2532935,24.1387156 C33.2532935,23.503211 33.4575978,23.1877982 33.8637217,23.1877982 C34.6276543,23.1877982 35.3678435,22.7633945 36.0892587,21.9126606 C36.8092935,21.0646789 37.2974152,19.9758716 37.5516913,18.6473394 L33.3303217,8.42944954 C33.2632326,8.3287156 33.2284457,8.23568807 33.2284457,8.15146789 L33.2284457,8.15146789 Z"></path>
                        <path d="M45.1794217,17.5849541 C45.1794217,17.366422 45.2520326,17.1520183 45.39615,16.9392661 C45.5397152,16.7289908 45.7133739,16.6213761 45.9176783,16.6213761 C46.053237,16.6213761 46.2476022,16.7292661 46.5021543,16.9392661 C46.7564304,17.1517431 47.1214174,17.3584404 47.5960109,17.5601835 C48.0695,17.7644037 48.6291283,17.8656881 49.2743435,17.8656881 C50.1213783,17.8656881 50.7359478,17.7110092 51.1183283,17.403578 C51.4987761,17.0966972 51.6898283,16.7102752 51.6898283,16.250367 C51.6898283,15.6844954 51.4772413,15.2369725 51.054,14.902844 C50.6310348,14.5709174 50.1130957,14.3193578 49.5029435,14.1484404 C48.891963,13.9775229 48.2826391,13.7892661 47.6716587,13.5825688 C47.0617826,13.3786239 46.5446717,13.0356881 46.1214304,12.5576147 C45.6973609,12.0787156 45.4847739,11.4476147 45.4847739,10.6618349 C45.4847739,9.70651376 45.8287783,8.88110092 46.5154065,8.18394495 C47.2014826,7.4887156 48.2492326,7.14247706 49.6564478,7.14247706 C50.5540065,7.14247706 51.3756413,7.27651376 52.1224565,7.5487156 C52.867063,7.81926606 53.2408848,8.12642202 53.2408848,8.47073394 C53.2408848,8.67330275 53.1608196,8.89954128 52.9987565,9.15330275 C52.8375217,9.40706422 52.638463,9.5333945 52.4024087,9.5333945 C52.3339391,9.5333945 52.0078804,9.40954128 51.4225761,9.1612844 C50.8375478,8.91412844 50.2561087,8.78834862 49.6801913,8.78834862 C48.9005217,8.78834862 48.320187,8.97412844 47.9386348,9.3412844 C47.5570826,9.70844037 47.3671348,10.1229358 47.3671348,10.5831193 C47.3671348,11.0620183 47.5777891,11.4399083 48.002687,11.7112844 C48.4267565,11.9859633 48.9463522,12.1987156 49.5667196,12.3533945 C50.1854304,12.5055963 50.7997239,12.6952294 51.4098761,12.9165138 C52.0200283,13.1394495 52.5379674,13.5187156 52.962037,14.0573394 C53.3850022,14.5956881 53.5967609,15.2933945 53.5967609,16.1474312 C53.5967609,17.1853211 53.2229391,18.006055 52.4780565,18.6079817 C51.7315174,19.2110092 50.689013,19.5121101 49.3510957,19.5121101 C48.1965,19.5121101 47.2144587,19.3054128 46.4002783,18.8911927 C45.5863739,18.4780734 45.1794217,18.0434862 45.1794217,17.5849541 L45.1794217,17.5849541 Z"></path>
                        <path d="M56.2930261,24.3531193 L56.2930261,8.02926606 C56.2930261,7.80853211 56.3902087,7.6312844 56.5856783,7.49724771 C56.7792152,7.3612844 57.0224478,7.29275229 57.3101304,7.29275229 C57.5986413,7.29275229 57.8346957,7.36293578 58.0224348,7.49944954 C58.2085174,7.63761468 58.3015587,7.81678899 58.3015587,8.03944954 L58.3015587,9.09440367 C58.6069109,8.54477064 59.0558283,8.08293578 59.6499674,7.70779817 C60.2427261,7.32990826 60.9288022,7.14247706 61.7095761,7.14247706 C62.9809565,7.14247706 64.062113,7.61862385 64.9519413,8.57394495 C65.8417696,9.52926606 66.2865457,10.6742202 66.2865457,12.0088073 L66.2865457,14.5940367 C66.2865457,15.8785321 65.8376283,17.0199083 64.938137,18.0162385 C64.03975,19.0147706 62.9972457,19.5123853 61.8111761,19.5123853 C61.064637,19.5123853 60.3818739,19.3202752 59.763163,18.9338532 C59.1447283,18.5501835 58.6916696,18.0756881 58.4031587,17.5109174 L58.4031587,24.3522936 C58.4031587,24.5375229 58.2982457,24.7120183 58.0859348,24.8738532 C57.8733478,25.0345872 57.623213,25.1152294 57.3358065,25.1152294 C57.0464674,25.1152294 56.8015783,25.0387156 56.59755,24.8856881 C56.3946261,24.7351376 56.2930261,24.5581651 56.2930261,24.3531193 L56.2930261,24.3531193 Z M58.4031587,15.2688991 C58.4031587,15.6872477 58.6958109,16.1779817 59.280287,16.7413761 C59.8655913,17.3053211 60.5301326,17.5849541 61.2769478,17.5849541 C62.0406043,17.5849541 62.7137043,17.2797248 63.2981804,16.6670642 C63.8834848,16.0522018 64.1753087,15.3613761 64.1753087,14.587156 L64.1753087,12.0176147 C64.1753087,11.2623853 63.8834848,10.5811927 63.2981804,9.97678899 C62.7137043,9.37045872 62.0226587,9.06880734 61.2255957,9.06880734 C60.4798848,9.06880734 59.8227978,9.3412844 59.255163,9.88844037 C58.6878043,10.4325688 58.4028826,11.1423853 58.4028826,12.0176147 L58.4028826,15.2688991 L58.4031587,15.2688991 Z"></path>
                        <path d="M69.4383543,18.5488073 L69.4383543,0.778623853 C69.4383543,0.560091743 69.535813,0.382293578 69.7312826,0.246055046 C69.9256478,0.112018349 70.1766109,0.0440366972 70.481963,0.0440366972 C70.786763,0.0440366972 71.0399348,0.112018349 71.2442391,0.246055046 C71.4479913,0.382293578 71.5495913,0.560091743 71.5495913,0.778623853 L71.5495913,18.5488073 C71.5495913,18.736789 71.4419174,18.909633 71.2320913,19.0684404 C71.0195043,19.2294495 70.7688174,19.3092661 70.481963,19.3092661 C70.1929,19.3092661 69.9469065,19.233578 69.7439826,19.0813761 C69.5399543,18.9305505 69.4383543,18.7527523 69.4383543,18.5488073 L69.4383543,18.5488073 Z"></path>
                        <path d="M75.2745565,3.63082569 C75.0108935,3.38587156 74.8803043,3.10293578 74.8803043,2.78119266 C74.8803043,2.46137615 75.0073043,2.18284404 75.2615804,1.94614679 C75.5158565,1.70834862 75.8292152,1.59110092 76.2027609,1.59110092 C76.558637,1.59110092 76.8639891,1.70834862 77.1171609,1.94614679 C77.371713,2.18256881 77.498713,2.46137615 77.498713,2.78119266 C77.498713,3.10293578 77.371713,3.38587156 77.1171609,3.63082569 C76.863713,3.8766055 76.558637,3.99853211 76.2027609,3.99853211 C75.8468848,3.99853211 75.536563,3.8766055 75.2745565,3.63082569 L75.2745565,3.63082569 Z M75.1602565,18.5488073 L75.1602565,8.02954128 C75.1602565,7.80880734 75.2615804,7.63155963 75.4656087,7.49752294 C75.6685326,7.36155963 75.91425,7.29302752 76.2027609,7.29302752 C76.508113,7.29302752 76.7615609,7.36155963 76.9655891,7.49752294 C77.168513,7.63155963 77.2703891,7.80880734 77.2703891,8.02954128 L77.2703891,18.5488073 C77.2703891,18.736789 77.1643717,18.909633 76.9531652,19.0684404 C76.7414065,19.2294495 76.4904435,19.3092661 76.203037,19.3092661 C75.9145261,19.3092661 75.6688087,19.233578 75.4658848,19.0813761 C75.2618565,18.9305505 75.1602565,18.7527523 75.1602565,18.5488073 L75.1602565,18.5488073 Z"></path>
                        <path d="M80.6030348,15.4830275 L80.6030348,2.42642202 C80.6030348,2.22440367 80.7123652,2.05100917 80.9324065,1.90678899 C81.1524478,1.76422018 81.391263,1.69238532 81.6438826,1.69238532 C81.9152761,1.69238532 82.1609935,1.76422018 82.3821391,1.90678899 C82.6021804,2.05100917 82.7131674,2.22440367 82.7131674,2.42642202 L82.7131674,7.29275229 L85.9163283,7.29275229 C86.1024109,7.29275229 86.2556391,7.37944954 86.3751848,7.54651376 C86.4922457,7.71577982 86.5529848,7.91201835 86.5529848,8.13055046 C86.5529848,8.3512844 86.4922457,8.54091743 86.3751848,8.7 C86.2556391,8.86073394 86.1024109,8.94110092 85.9163283,8.94110092 L82.7131674,8.94110092 L82.7131674,15.4224771 C82.7131674,16.1430275 82.8691565,16.6508257 83.1830674,16.9433945 C83.4964261,17.2359633 84.0430783,17.383211 84.8224717,17.383211 L85.6107,17.383211 C85.9000391,17.383211 86.1242217,17.4759633 86.2854565,17.6614679 C86.445863,17.8453211 86.5270326,18.069633 86.5270326,18.3341284 C86.5270326,18.5977982 86.4414457,18.826789 86.2716522,19.0188991 C86.1021348,19.2126606 85.8818174,19.3089908 85.6104239,19.3089908 L84.8221957,19.3089908 C82.01025,19.3089908 80.6030348,18.0346789 80.6030348,15.4830275 L80.6030348,15.4830275 Z"></path>
                    </g>
                    <path d="M30.3140717,9.15220183 C30.7110848,7.67284404 31.12135,6.1433945 31.12135,4.94504587 C31.12135,3.93275229 30.6089326,0.279908257 28.9833326,0.0429357798 C27.2980978,-0.202018349 23.1750152,3.78357798 23.1341543,3.82266055 L23.0673413,3.88733945 L22.9754043,3.86642202 C22.9422739,3.85816514 19.5886457,3.09825688 15.6083,3.09715596 C12.8443935,3.09825688 10.4261478,3.45220183 9.11280217,3.69082569 L15.9103391,18.9924771 L29.8267783,14.8670642 C29.6970174,14.0878899 29.6117065,13.4086239 29.6117065,12.683945 C29.6114304,11.7663303 29.9532261,10.4961468 30.3140717,9.15220183" id="Shape" fill="#64C8DC"></path>
                    <path d="M2.2202913,0.0429357798 C0.59413913,0.279908257 0.082273913,3.93275229 0.082273913,4.94504587 C0.082273913,6.14311927 0.49253913,7.67311927 0.889552174,9.15137615 C1.25122609,10.4961468 1.5916413,11.7666055 1.5916413,12.6831193 C1.5916413,13.41 1.50743478,14.0865138 1.37767391,14.8610092 L14.6944522,18.8097248 L8.01314783,3.76954128 C6.49246087,2.31825688 3.52673478,-0.148899083 2.2202913,0.0429357798" id="Shape" fill="#4BE6A0"></path>
                    <path d="M18.6159913,28.1983486 C18.9682783,27.909633 19.3017913,27.6366055 19.7203391,27.4816514 C19.8547935,27.4312844 20.0803565,27.3712844 20.3920587,27.286789 C20.9196609,27.1447706 21.6916,26.936422 22.5667957,26.6314679 L15.6110609,20.3080734 L8.65035652,26.6358716 C9.52196304,26.9397248 10.290313,27.1461468 10.8148783,27.2873394 C11.1254761,27.3718349 11.3491065,27.4318349 11.4843891,27.4813761 C11.9023848,27.636055 12.2350696,27.9093578 12.5873565,28.1980734 C13.2516217,28.7427523 14.0039587,29.3598165 15.5944957,29.362844 L15.6088522,29.5351376 L15.6088522,29.362844 C17.1996652,29.3600917 17.9525543,28.7430275 18.6159913,28.1983486" id="Shape" fill="#AA3CDC"></path>
                    <path d="M7.5650587,26.2246789 L14.5740783,19.8520183 L1.20097826,15.8881651 C1.08474565,16.5633028 0.98783913,17.2244037 0.98783913,17.8855046 C0.988115217,21.6137615 3.20095217,24.4188991 7.5650587,26.2246789" id="Shape" fill="#FF8214"></path>
                    <path d="M30.2155087,17.8846789 C30.2155087,17.2274312 30.1186022,16.5668807 30.0031978,15.8931193 L16.6480435,19.8520183 L23.6515413,26.2191743 C28.0073652,24.4131193 30.2155087,21.609633 30.2155087,17.8846789" id="Shape" fill="#2D3782"></path>
                </g>
            </g>
        </g>
    </g>
</svg>